<svg xmlns="http://www.w3.org/2000/svg" viewBox="0 0 44 44" fill="none">
  <rect width="44" height="44" rx="10" fill="#111111"/>
  <path d="M22 4L7 10.5v10.8c0 9.6 6.1 18.6 15 21.7 8.9-3.1 15-12.1 15-21.7V10.5L22 4z"
    stroke="#D4AF37" stroke-width="1.5" stroke-linejoin="round" fill="rgba(212,175,55,0.10)"/>
  <path d="M22 8L10 13.5v8.8c0 7.6 4.8 14.7 12 17.2 7.2-2.5 12-9.6 12-17.2V13.5L22 8z"
    stroke="rgba(212,175,55,0.35)" stroke-width="0.8" stroke-linejoin="round" fill="none"/>
  <rect x="15" y="16" width="14" height="11" rx="2" stroke="#D4AF37" stroke-width="1.3" fill="rgba(212,175,55,0.12)"/>
  <path d="M21.5 18.5 C18.5 18.5 16.5 19.8 16.5 21.5 C16.5 23.2 18.5 24.5 21.5 24.5"
    stroke="#D4AF37" stroke-width="1.4" stroke-linecap="round" fill="none"/>
</svg>
